<svg width="700" height="647" viewBox="0 0 700 647" fill="none" xmlns="http://www.w3.org/2000/svg">
<path d="M230.535 42.0466H58.385V343.232H230.535V42.0466Z" fill="#FAFAFA"/>
<path d="M112 346.128C112 346.128 93.106 210.62 83.2719 195.737C83.2719 195.737 139.659 153.381 141.394 38.624H55.814V346.128H112Z" fill="#EBEBEB"/>
<path d="M176.874 345.525C176.874 345.525 195.737 210.016 205.617 195.133C205.617 195.133 149.215 152.792 147.496 38.0201H233.075V345.525H176.874Z" fill="#EBEBEB"/>
<path d="M235.057 30.5865H42.418V353.191H243.033V30.5865H235.057ZM92.9821 198.199V274.905H58.3848V198.199H92.9821ZM58.3848 192.64V113.239H92.9821V192.64H58.3848ZM145.652 192.64V113.239H188.922V192.64H145.652ZM188.922 198.199V274.905H145.652V198.199H188.922ZM94.4534 192.64V113.239H140.046V192.64H94.4534ZM140.046 198.199V274.905H94.5153V198.199H140.046ZM94.5153 111.876V42.0467H140.108V111.876H94.5153ZM140.108 276.283V343.264H94.5153V276.283H140.108ZM145.652 276.283H188.922V343.264H145.652V276.283ZM145.652 111.876V42.0467H188.922V111.876H145.652ZM190.471 198.199H227.082V274.905H190.471V198.199ZM190.471 192.64V113.239H227.082V192.64H190.471ZM227.082 111.876H190.471V42.0467H227.082V111.876ZM92.9821 42.0467V111.876H58.3848V42.0467H92.9821ZM58.3848 276.283H92.9821V343.264H58.3848V276.283ZM190.471 343.264V276.283H227.082V343.264H190.471Z" fill="#E0E0E0"/>
<path d="M666.828 42.0466H494.677V343.232H666.828V42.0466Z" fill="#FAFAFA"/>
<path d="M548.307 346.128C548.307 346.128 529.445 210.62 519.564 195.737C519.564 195.737 575.967 153.381 577.686 38.624H492.106V346.128H548.307Z" fill="#EBEBEB"/>
<path d="M613.181 345.525C613.181 345.525 632.029 210.016 641.909 195.133C641.909 195.133 585.522 152.792 583.788 38.0201H669.367V345.525H613.181Z" fill="#EBEBEB"/>
<path d="M671.365 30.5865H478.726V353.191H679.341V30.5865H671.365ZM529.29 198.199V274.905H494.677V198.199H529.29ZM494.677 192.64V113.239H529.29V192.64H494.677ZM581.945 192.64V113.239H625.307V192.64H581.945ZM625.307 198.199V274.905H581.945V198.199H625.307ZM530.838 192.64V113.239H576.416V192.64H530.838ZM576.416 198.199V274.905H530.823V198.199H576.416ZM530.823 111.876V42.0467H576.4V111.876H530.823ZM576.4 276.283V343.264H530.823V276.283H576.4ZM581.945 276.283H625.307V343.264H581.945V276.283ZM581.945 111.876V42.0467H625.307V111.876H581.945ZM626.763 198.199H663.374V274.905H626.763V198.199ZM626.763 192.64V113.239H663.374V192.64H626.763ZM663.374 111.876H626.763V42.0467H663.374V111.876ZM529.29 42.0467V111.876H494.677V42.0467H529.29ZM494.677 276.283H529.29V343.264H494.677V276.283ZM626.763 343.264V276.283H663.374V343.264H626.763Z" fill="#E0E0E0"/>
<path d="M331.431 114.741H289.571V167.582H331.431V114.741Z" fill="#EBEBEB"/>
<path d="M313.668 166.39H307.861V167.799H313.668V166.39Z" fill="#E0E0E0"/>
<path d="M311.841 132.923L304.128 134.053L301.263 141.301L306.095 147.403L313.792 146.272L316.672 139.04L311.841 132.923Z" fill="#E0E0E0"/>
<path d="M315.449 137.6L307.737 138.73L304.856 145.978L309.688 152.08L317.4 150.965L320.281 143.717L315.449 137.6Z" fill="#FAFAFA"/>
<path d="M314.489 114.014H308.682V115.222H314.489V114.014Z" fill="#E0E0E0"/>
<path d="M433.009 44.1993H363.117V132.427H433.009V44.1993Z" fill="#EBEBEB"/>
<path d="M403.352 130.46H393.657V132.814H403.352V130.46Z" fill="#E0E0E0"/>
<path d="M400.301 74.5842L387.416 76.4581L382.615 88.5532L390.684 98.759L403.553 96.8851L408.354 84.79L400.301 74.5842Z" fill="#E0E0E0"/>
<path d="M406.31 82.3896L393.44 84.279L388.624 96.3742L396.708 106.58L409.577 104.691L414.378 92.6109L406.31 82.3896Z" fill="#FAFAFA"/>
<path d="M404.714 43.0067H395.02V45.02H404.714V43.0067Z" fill="#E0E0E0"/>
<path d="M315.898 412.133C306.42 413.682 302.192 425.297 303.013 434.867C303.834 444.438 307.783 453.777 306.73 463.317C305.383 475.443 296.23 485.679 295.161 497.821C293.907 512.146 304.035 524.845 307.055 538.907C308.526 545.737 308.325 552.969 310.865 559.489C313.031 565.04 317.057 569.668 322.254 572.583C327.452 575.497 333.5 576.518 339.366 575.471C345.232 574.424 350.553 571.373 354.422 566.841C358.29 562.308 360.466 556.573 360.577 550.615C360.779 539.62 353.996 529.259 354.816 518.294C355.42 510.179 360.175 502.498 359.168 494.429C357.945 484.843 349.055 478.029 345.927 468.876C342.799 459.724 345.803 449.642 344.719 440.025C342.768 422.772 333.212 410.739 315.898 412.148" fill="#F5F5F5"/>
<path d="M267.502 495.653C265.953 511.635 272.953 530.436 281.177 544.234C289.505 558.124 302.041 569 316.967 575.285C318.624 575.982 320.714 576.571 322.124 575.44C322.621 574.889 322.994 574.237 323.219 573.529C323.443 572.821 323.513 572.073 323.425 571.336C323.535 554.372 318.145 537.828 308.064 524.184C297.982 510.54 283.751 500.529 267.502 495.653" fill="#EBEBEB"/>
<path d="M337.131 608.706C336.94 608.432 336.784 608.135 336.666 607.823C336.372 607.126 336 606.275 335.535 605.206C334.575 602.914 333.135 599.631 331.307 595.604C326.539 585.1 321.241 574.845 315.434 564.878C309.604 554.925 303.272 545.275 296.462 535.965C293.845 532.403 291.677 529.538 290.159 527.571L288.44 525.294C288.223 525.047 288.041 524.771 287.898 524.474C287.898 524.474 288.161 524.69 288.58 525.186L290.438 527.354C291.987 529.244 294.279 532 296.973 535.593C303.955 544.811 310.383 554.435 316.223 564.414C322.051 574.422 327.285 584.764 331.896 595.387C333.646 599.46 334.993 602.79 335.861 605.113C336.263 606.197 336.588 607.095 336.836 607.792C336.968 608.085 337.067 608.391 337.131 608.706Z" fill="#E0E0E0"/>
<path d="M326.832 456.347C326.933 456.858 326.996 457.376 327.018 457.896C327.095 458.98 327.204 460.451 327.328 462.294C327.575 466.212 327.932 471.71 328.381 478.493C329.232 492.168 330.456 511.016 331.912 531.907C333.367 552.799 334.823 571.646 335.892 585.305C336.403 592.073 336.836 597.586 337.131 601.489C337.255 603.332 337.347 604.803 337.425 605.887C337.466 606.403 337.466 606.921 337.425 607.436C337.309 606.926 337.231 606.409 337.193 605.887C337.084 604.819 336.929 603.347 336.728 601.505C336.356 597.602 335.845 592.104 335.179 585.352C333.956 571.693 332.407 552.83 330.936 531.954C329.465 511.078 328.35 492.199 327.653 478.509C327.343 471.726 327.08 466.212 326.894 462.294C326.894 460.451 326.785 458.98 326.755 457.896C326.739 457.379 326.765 456.861 326.832 456.347Z" fill="#E0E0E0"/>
<path d="M312.135 585.925H352.168V615.35C352.168 620.447 350.143 625.335 346.539 628.94C342.935 632.544 338.046 634.569 332.949 634.569V634.569C328.03 634.568 323.298 632.68 319.728 629.295C316.158 625.91 314.023 621.284 313.761 616.372L312.135 585.925Z" fill="#E0E0E0"/>
<path d="M700 635.064C700 635.281 543.29 635.467 350 635.467C156.71 635.467 0 635.281 0 635.064C0 634.847 156.679 634.662 350 634.662C543.321 634.662 700 634.847 700 635.064Z" fill="#263238"/>
<path d="M481.079 307.814L474.885 306.529C469.356 304.872 466.228 304.159 464.942 302.347C463.239 299.916 466.491 298.522 466.491 298.522C466.491 298.522 462.681 296.308 463.564 293.876C463.781 293.394 464.145 292.993 464.604 292.731C465.063 292.47 465.594 292.361 466.119 292.42C466.119 292.42 462.805 290.299 462.387 288.657C461.814 286.427 464.571 285.839 464.571 285.839C460.265 281.843 461.303 278.931 462.495 278.87C463.688 278.808 467.141 281.301 467.141 281.301C470.239 282.85 478.478 287.294 476.17 281.781C473.863 276.268 474.157 271.173 475.195 269.841C475.469 269.557 475.825 269.367 476.214 269.297C476.602 269.228 477.003 269.283 477.358 269.455C477.713 269.627 478.005 269.906 478.192 270.253C478.38 270.601 478.452 270.998 478.4 271.389C478.538 273.403 478.949 275.388 479.624 277.29C480.113 278.835 480.862 280.286 481.838 281.58C482.984 283.128 484.006 284.321 484.936 285.343L489.411 291.755L481.079 307.814Z" fill="#FFBE9D"/>
<path d="M457.23 628.87L462.557 617.626L483.681 627.476L476.062 644L474.714 643.474C468.736 641.073 444.484 630.883 441.139 627.878C437.407 624.533 457.23 628.87 457.23 628.87Z" fill="#407BFF"/>
<g opacity="0.3">
<path opacity="0.3" d="M468.473 640.252C469.62 638.619 471.33 637.466 473.274 637.015C475.186 636.54 477.208 636.811 478.927 637.774L476.17 643.675L468.473 640.252Z" fill="white"/>
</g>
<g opacity="0.3">
<path opacity="0.3" d="M447.396 627.057C447.396 627.057 440.272 625.942 440.566 627.352C440.86 628.761 464.989 639.973 476.062 644L476.248 643.504L448 630.65C448 630.65 448.604 627.739 447.396 627.057Z" fill="white"/>
</g>
<path d="M476.573 643.644L476.201 643.52L475.133 643.102L471.215 641.476C467.916 640.082 463.378 638.1 458.438 635.792C453.498 633.485 449.038 631.316 445.847 629.69L442.084 627.739L441.077 627.197L440.721 626.996C440.852 627.029 440.977 627.081 441.093 627.15L442.13 627.646L445.94 629.52C449.146 631.069 453.606 633.237 458.546 635.544C463.487 637.852 468.009 639.85 471.292 641.29L475.164 642.993L476.217 643.458L476.573 643.644Z" fill="#263238"/>
<path d="M447.861 630.976C447.979 630.265 448.021 629.543 447.984 628.823C447.857 628.105 447.649 627.404 447.365 626.732C447.86 627.31 448.172 628.023 448.26 628.778C448.349 629.534 448.209 630.299 447.861 630.976Z" fill="#263238"/>
<path d="M455.495 630.728C455.315 630.377 455.215 629.991 455.201 629.597C455.109 629.221 455.109 628.828 455.201 628.451C455.201 628.451 455.403 628.932 455.48 629.566C455.581 629.946 455.587 630.346 455.495 630.728Z" fill="#263238"/>
<path d="M457.695 630.619C457.617 630.619 457.385 630.263 457.168 629.768C456.951 629.272 456.843 628.854 456.92 628.823C456.998 628.792 457.23 629.164 457.431 629.659C457.601 629.951 457.691 630.282 457.695 630.619V630.619Z" fill="#263238"/>
<path d="M459.692 629.117C459.692 629.195 459.15 629.024 458.531 628.746C458.14 628.615 457.781 628.404 457.478 628.126C457.478 628.049 458.035 628.219 458.639 628.498C459.03 628.628 459.389 628.839 459.692 629.117V629.117Z" fill="#263238"/>
<path d="M460.73 627.894C460.249 627.966 459.758 627.891 459.321 627.677C458.86 627.55 458.45 627.285 458.144 626.918C458.587 627.042 459.017 627.208 459.429 627.414C459.875 627.537 460.311 627.697 460.73 627.894V627.894Z" fill="#263238"/>
<path d="M455.697 628.544C455.215 628.41 454.759 628.195 454.349 627.909C453.884 627.623 453.448 627.291 453.049 626.918C452.805 626.7 452.587 626.456 452.398 626.19C452.281 626.024 452.231 625.819 452.259 625.617C452.279 625.506 452.333 625.403 452.413 625.322C452.493 625.242 452.596 625.188 452.708 625.168C453.117 625.164 453.521 625.25 453.893 625.421C454.265 625.591 454.595 625.84 454.86 626.152C455.124 626.464 455.317 626.83 455.424 627.225C455.531 627.62 455.55 628.033 455.48 628.436C455.461 628.573 455.414 628.705 455.341 628.823C455.391 628.337 455.365 627.845 455.263 627.367C455.119 626.873 454.84 626.428 454.458 626.082C454.236 625.868 453.974 625.7 453.687 625.589C453.4 625.477 453.093 625.423 452.785 625.431C452.491 625.431 452.46 625.788 452.63 626.051C452.812 626.3 453.019 626.528 453.25 626.732C453.632 627.098 454.041 627.434 454.473 627.739C455.201 628.265 455.712 628.498 455.697 628.544Z" fill="#263238"/>
<path d="M455.309 628.451C455.284 628.086 455.388 627.724 455.604 627.429C455.812 627.097 456.092 626.816 456.425 626.608C456.636 626.464 456.879 626.375 457.133 626.348C457.387 626.321 457.644 626.357 457.88 626.453C458.002 626.549 458.083 626.687 458.106 626.839C458.129 626.992 458.092 627.148 458.004 627.274C457.875 627.477 457.7 627.647 457.493 627.77C457.178 627.99 456.834 628.168 456.471 628.296C456.145 628.442 455.789 628.506 455.433 628.482C455.433 628.482 455.821 628.358 456.394 628.111C456.73 627.965 457.048 627.777 457.338 627.553C457.663 627.352 458.035 626.903 457.725 626.686C457.416 626.469 456.889 626.686 456.564 626.841C456.25 627.015 455.976 627.252 455.759 627.538C455.591 627.833 455.441 628.138 455.309 628.451V628.451Z" fill="#263238"/>
<path d="M478.834 637.666C478.834 637.666 478.261 637.325 477.285 637C475.975 636.568 474.571 636.503 473.227 636.814C471.892 637.159 470.673 637.854 469.697 638.828C468.953 639.587 468.643 640.175 468.597 640.159C468.634 640.003 468.703 639.856 468.798 639.726C469.011 639.352 469.265 639.004 469.557 638.688C470.52 637.629 471.776 636.88 473.166 636.536C474.556 636.208 476.012 636.305 477.347 636.814C477.747 636.96 478.132 637.146 478.493 637.372C478.725 637.542 478.849 637.651 478.834 637.666Z" fill="#263238"/>
<path d="M480.739 627.863C480.223 629.371 479.613 630.845 478.911 632.277C478.293 633.756 477.59 635.199 476.805 636.598C477.337 635.088 477.952 633.609 478.648 632.168C479.263 630.695 479.961 629.258 480.739 627.863V627.863Z" fill="#263238"/>
<path d="M466.77 637.031C465.655 636.784 464.573 636.404 463.548 635.901C462.492 635.461 461.494 634.894 460.575 634.212C460.575 634.135 461.953 634.863 463.672 635.637C465.391 636.412 466.801 636.892 466.77 637.031Z" fill="#263238"/>
<path d="M470.982 638.889C470.982 638.889 470.734 639.122 470.44 639.369C470.146 639.617 469.944 639.865 469.883 639.834C469.821 639.803 469.882 639.447 470.254 639.153C470.626 638.858 470.982 638.812 470.982 638.889Z" fill="#263238"/>
<path d="M473.382 637.666C473.382 637.666 473.166 637.898 472.856 638.022C472.546 638.146 472.252 638.177 472.221 638.1C472.19 638.022 472.438 637.867 472.747 637.759C473.057 637.65 473.351 637.589 473.382 637.666Z" fill="#263238"/>
<path d="M476.031 637.821C476.031 637.821 475.705 637.744 475.334 637.713C474.962 637.682 474.683 637.713 474.652 637.713C474.621 637.713 474.931 637.434 475.365 637.48C475.798 637.527 476.077 637.759 476.031 637.821Z" fill="#263238"/>
<path d="M477.812 638.146C477.812 638.146 477.641 638.27 477.424 638.254C477.208 638.239 477.053 638.161 477.068 638.084C477.084 638.007 477.239 637.96 477.455 637.976C477.672 637.991 477.812 638.069 477.812 638.146Z" fill="#263238"/>
<path d="M635.404 635.018L630.139 623.743L651.185 613.801L659.068 630.201L657.798 630.914C652.146 634.011 628.838 646.168 624.393 646.834C619.438 647.531 635.404 635.018 635.404 635.018Z" fill="#407BFF"/>
<g opacity="0.3">
<path opacity="0.3" d="M651.356 633.609C650.816 631.686 651.014 629.631 651.914 627.847C652.775 626.084 654.268 624.708 656.095 623.991L658.898 629.861L651.356 633.609Z" fill="white"/>
</g>
<g opacity="0.3">
<path opacity="0.3" d="M627.754 641.445C627.754 641.445 622.349 646.23 623.619 646.896C624.889 647.562 648.909 636.055 659.068 630.155L658.805 629.706L630.929 643.272C630.929 643.272 628.946 640.918 627.754 641.445Z" fill="white"/>
</g>
<path d="M659.13 629.535L658.789 629.737L657.783 630.294L654.035 632.277C650.86 633.934 646.446 636.164 641.506 638.471C636.566 640.779 632.075 642.839 628.792 644.263L624.889 645.936L623.82 646.369L623.449 646.493L623.805 646.308L624.843 645.827L628.714 644.093C631.966 642.622 636.458 640.562 641.398 638.208C646.338 635.854 650.69 633.67 653.942 632.013L657.721 630.108L658.758 629.597C658.88 629.563 659.004 629.542 659.13 629.535V629.535Z" fill="#263238"/>
<path d="M631.068 643.597C630.611 643.026 630.091 642.506 629.52 642.049C628.887 641.693 628.217 641.408 627.522 641.197C628.285 641.185 629.035 641.402 629.675 641.818C630.315 642.235 630.816 642.833 631.115 643.535L631.068 643.597Z" fill="#263238"/>
<path d="M635.776 637.496C635.776 637.496 635.265 637.341 634.723 637C634.181 636.659 633.778 636.334 633.825 636.272C633.871 636.21 634.336 636.427 634.878 636.768C635.42 637.109 635.807 637.434 635.776 637.496Z" fill="#263238"/>
<path d="M637.046 635.777C637.046 635.854 636.581 635.777 636.07 635.637C635.559 635.498 635.157 635.297 635.172 635.219C635.505 635.19 635.84 635.243 636.148 635.374C636.69 635.482 637.061 635.699 637.046 635.777Z" fill="#263238"/>
<path d="M637.186 633.283C637.186 633.361 636.752 633.655 636.148 633.949C635.544 634.243 635.033 634.429 634.987 634.352C635.281 634.059 635.635 633.832 636.024 633.686C636.69 633.392 637.139 633.206 637.186 633.283Z" fill="#263238"/>
<path d="M636.876 631.704C636.876 631.704 636.52 632.261 635.823 632.648C635.424 632.918 634.957 633.068 634.476 633.082C635.283 632.635 636.083 632.175 636.876 631.704Z" fill="#263238"/>
<path d="M634.181 635.993C633.775 636.286 633.318 636.502 632.834 636.628C632.331 636.803 631.812 636.927 631.285 637C630.956 637.04 630.623 637.04 630.294 637C630.193 636.994 630.094 636.968 630.004 636.923C629.913 636.877 629.833 636.814 629.768 636.737C629.707 636.642 629.675 636.532 629.675 636.419C629.675 636.307 629.707 636.196 629.768 636.102C630.166 635.603 630.724 635.258 631.349 635.125C631.973 634.992 632.624 635.08 633.19 635.374C633.522 635.547 633.817 635.784 634.057 636.071C634.149 636.168 634.217 636.284 634.259 636.411C633.923 636.063 633.53 635.775 633.097 635.56C632.614 635.335 632.073 635.265 631.548 635.358C631.246 635.393 630.953 635.487 630.687 635.636C630.421 635.785 630.187 635.985 630 636.225C629.86 636.489 630 636.706 630.372 636.737C630.675 636.767 630.981 636.767 631.285 636.737C631.809 636.682 632.327 636.583 632.834 636.442C633.593 636.194 634.166 635.962 634.181 635.993Z" fill="#263238"/>
<path d="M633.872 636.226C633.872 636.226 633.484 636.009 633.268 635.359C633.141 634.985 633.104 634.587 633.159 634.197C633.182 633.943 633.267 633.698 633.408 633.484C633.549 633.271 633.74 633.095 633.964 632.974C634.116 632.94 634.275 632.967 634.408 633.048C634.54 633.129 634.637 633.257 634.677 633.407C634.729 633.642 634.729 633.885 634.677 634.12C634.64 634.502 634.552 634.877 634.414 635.235C634.197 635.854 633.933 636.179 633.903 636.148C633.872 636.117 634.057 635.777 634.228 635.173C634.329 634.824 634.391 634.466 634.414 634.104C634.414 633.717 634.336 633.144 633.98 633.252C633.624 633.361 633.438 633.887 633.36 634.244C633.281 634.595 633.281 634.96 633.36 635.312C633.493 635.636 633.665 635.943 633.872 636.226V636.226Z" fill="#263238"/>
<path d="M655.956 623.976C655.956 623.976 655.336 624.208 654.407 624.781C653.249 625.495 652.316 626.52 651.712 627.739C651.118 628.982 650.877 630.364 651.015 631.734C651.124 632.803 651.372 633.423 651.325 633.438C651.236 633.305 651.168 633.158 651.124 633.004C650.974 632.604 650.87 632.189 650.814 631.765C650.611 630.35 650.832 628.906 651.449 627.615C652.072 626.314 653.077 625.233 654.329 624.518C654.701 624.299 655.096 624.122 655.506 623.991C655.654 623.961 655.806 623.956 655.956 623.976V623.976Z" fill="#263238"/>
<path d="M649.622 616.263C650.443 617.63 651.187 619.041 651.852 620.491C652.597 621.907 653.259 623.365 653.834 624.858C653.011 623.487 652.266 622.071 651.604 620.615C650.849 619.209 650.187 617.755 649.622 616.263V616.263Z" fill="#263238"/>
<path d="M647.732 632.818C646.837 633.531 645.853 634.125 644.805 634.584C643.8 635.131 642.728 635.542 641.615 635.807C641.615 635.807 642.993 635.157 644.712 634.336C646.431 633.515 647.686 632.757 647.732 632.818Z" fill="#263238"/>
<path d="M651.852 630.836C651.852 630.836 651.852 631.193 651.852 631.564C651.852 631.936 651.929 632.261 651.852 632.292C651.774 632.323 651.573 632.013 651.573 631.58C651.573 631.146 651.774 630.836 651.852 630.836Z" fill="#263238"/>
<path d="M652.487 628.188C652.564 628.188 652.487 628.498 652.409 628.823C652.332 629.148 652.146 629.38 652.084 629.365C652.022 629.349 652.084 629.055 652.084 628.73C652.084 628.405 652.409 628.157 652.487 628.188Z" fill="#263238"/>
<path d="M654.283 626.19C654.283 626.268 654.02 626.407 653.772 626.655C653.524 626.903 653.369 627.182 653.292 627.166C653.214 627.151 653.292 626.763 653.571 626.454C653.849 626.144 654.283 626.19 654.283 626.19Z" fill="#263238"/>
<path d="M655.677 625.075C655.677 625.075 655.677 625.292 655.522 625.447C655.367 625.602 655.212 625.664 655.15 625.617C655.088 625.571 655.15 625.401 655.305 625.246C655.46 625.091 655.615 625.013 655.677 625.075Z" fill="#263238"/>
<path d="M660.013 619.345L625.942 635.188L564.677 526.115C556.701 497.341 549.004 396.027 549.004 396.027L593.327 399.403C593.327 399.403 600.157 472.19 610.858 509.606L660.013 619.345Z" fill="#263238"/>
<path d="M620.491 624.518C620.491 624.518 620.925 624.193 621.777 623.744C622.628 623.294 623.883 622.659 625.431 621.901C628.529 620.352 632.85 618.323 637.635 616.093C642.42 613.863 646.757 611.896 649.916 610.518C651.465 609.821 652.797 609.263 653.679 608.969C654.13 608.74 654.609 608.574 655.104 608.474C654.715 608.792 654.282 609.053 653.819 609.248C652.951 609.697 651.712 610.332 650.164 611.091C647.066 612.64 642.746 614.668 637.976 616.898C633.206 619.129 628.854 621.08 625.679 622.474C624.131 623.171 622.814 623.728 621.916 624.022C621.467 624.254 620.987 624.421 620.491 624.518V624.518Z" fill="#455A64"/>
<path d="M613.46 355.25C614.296 355.25 623.356 382.089 614.637 399.883C613.754 401.664 606.894 411.467 606.894 411.467C582.765 439.931 558.327 495.095 551.513 509.637C537.575 539.387 485.911 637.248 485.911 637.248L452.77 618.277L501.228 493.686L545.21 381.252L613.46 355.25Z" fill="#263238"/>
<path d="M553.712 470.363C553.712 470.363 551.374 481.684 550.166 481.033C546.712 479.159 522.971 470.316 522.971 470.316L529.383 463.208L553.712 470.363Z" fill="#455A64"/>
<path d="M546.712 479.16C546.712 479.16 542.267 497.418 536.553 496.427C530.838 495.436 518.898 489.427 518.898 489.427L526.099 471.416L546.712 479.16Z" fill="#455A64"/>
<path d="M550.166 481.033L523.668 470.44L524.938 474.328L545.922 482.009L550.166 481.033Z" fill="#263238"/>
<path d="M596.161 425.792C596.049 426.038 595.903 426.268 595.728 426.473L594.365 428.316C593.188 429.865 591.515 432.281 589.579 435.27C585.692 441.248 580.798 449.796 575.796 459.46C570.794 469.124 566.504 478.044 563.484 484.456L559.845 492.091L558.838 494.15C558.732 494.398 558.597 494.632 558.436 494.847C558.485 494.585 558.568 494.33 558.683 494.088L559.566 491.967C560.34 490.124 561.502 487.476 562.958 484.223C565.9 477.719 570.051 468.737 575.084 459.088C579.275 450.792 583.929 442.736 589.022 434.96C591.035 432.002 592.77 429.679 594.04 428.13C594.628 427.418 595.124 426.845 595.588 426.38C595.754 426.161 595.946 425.963 596.161 425.792V425.792Z" fill="#455A64"/>
<path d="M455.294 612.469C455.387 612.283 463.208 616 472.763 620.785C482.318 625.571 489.969 629.628 489.798 629.83C489.628 630.031 481.885 626.299 472.329 621.513C462.774 616.728 455.201 612.67 455.294 612.469Z" fill="#455A64"/>
<path d="M494.677 291.104C492.879 295.16 490.842 299.106 488.575 302.92C486.544 306.868 484.269 310.686 481.761 314.35C483.562 310.29 485.599 306.339 487.863 302.518C489.905 298.581 492.181 294.77 494.677 291.104V291.104Z" fill="#263238"/>
<path d="M557.29 243.978C559.102 243.978 561.254 257.142 563.082 280.79C565.157 307.613 564.971 334.684 557.553 351.703C556.868 353.521 555.832 355.185 554.503 356.602C553.174 358.018 551.579 359.158 549.81 359.958C530.606 367.887 477.626 311.082 477.626 311.082L490.666 288.208L527.973 318.33C527.973 318.33 531.69 287.852 530.978 273.805C530.405 263.15 541.044 244.102 557.29 243.978Z" fill="#455A64"/>
<path d="M573.799 244.241C573.799 244.241 606.197 248.98 614.575 261.71C622.953 274.44 618.71 386.719 618.71 386.719L535.422 391.644C535.422 391.644 542.144 248.732 546.263 247.106C556.608 243.049 572.56 243.839 573.799 244.241Z" fill="#455A64"/>
<path d="M440.458 214.677C440.215 211.27 440.85 207.858 442.301 204.766C442.943 203.443 443.282 201.993 443.292 200.522V196.759H394.741C392.765 196.759 390.871 197.544 389.474 198.941C388.077 200.338 387.292 202.232 387.292 204.208V252.558H384.009C382.492 252.543 380.998 252.183 379.641 251.504C376.598 250.039 373.236 249.363 369.863 249.538C366.49 249.713 363.215 250.734 360.34 252.507C357.465 254.28 355.082 256.747 353.411 259.682C351.74 262.617 350.834 265.926 350.777 269.303C350.72 272.68 351.513 276.017 353.084 279.007C354.655 281.997 356.952 284.544 359.766 286.413C362.579 288.282 365.817 289.413 369.182 289.703C372.547 289.992 375.931 289.43 379.022 288.069C380.301 287.486 381.689 287.18 383.095 287.17H387.354V334.312C387.352 335.292 387.543 336.262 387.916 337.167C388.29 338.073 388.838 338.896 389.53 339.589C390.222 340.283 391.044 340.833 391.949 341.208C392.853 341.583 393.823 341.777 394.803 341.777H525.96C527.57 341.777 529.114 341.137 530.253 339.999C531.391 338.86 532.031 337.316 532.031 335.706V202.83C532.033 202.032 531.877 201.242 531.573 200.504C531.268 199.767 530.821 199.097 530.257 198.532C529.693 197.968 529.023 197.521 528.286 197.217C527.548 196.913 526.758 196.757 525.96 196.759H478.571V202.133C478.566 203.376 478.808 204.608 479.283 205.757C480.392 208.458 480.9 211.369 480.772 214.287C480.644 217.204 479.882 220.059 478.54 222.653C477.198 225.247 475.308 227.518 473.001 229.308C470.694 231.098 468.025 232.365 465.179 233.021C462.333 233.677 459.378 233.706 456.52 233.105C453.662 232.505 450.969 231.29 448.627 229.545C446.286 227.8 444.352 225.566 442.96 222.998C441.568 220.431 440.751 217.592 440.566 214.677H440.458Z" fill="#407BFF"/>
<path d="M541.075 268.122C541.123 268.429 541.149 268.74 541.153 269.051C541.153 269.763 541.153 270.599 541.153 271.73C541.153 274.161 541.153 277.507 541.276 281.58C541.276 289.896 541.416 301.387 541.153 314.102C540.889 326.816 540.192 338.292 539.341 346.624C538.907 350.774 538.489 354.104 538.148 356.411C537.978 357.495 537.838 358.363 537.714 359.06C537.692 359.372 537.624 359.68 537.513 359.973C537.492 359.664 537.492 359.354 537.513 359.044C537.591 358.347 537.668 357.495 537.792 356.38C538.024 354.057 538.365 350.712 538.721 346.577C539.433 338.292 540.068 326.832 540.27 314.148C540.471 301.465 540.518 289.989 540.626 281.626C540.626 277.553 540.734 274.208 540.765 271.776C540.765 270.692 540.765 269.794 540.843 269.097C540.876 268.763 540.954 268.435 541.075 268.122V268.122Z" fill="#263238"/>
<path d="M590.617 191.308C589.285 199.763 589.363 207.182 593.497 212.695C594.395 213.755 595.222 214.873 595.975 216.04C596.348 216.627 596.597 217.285 596.706 217.972C596.816 218.659 596.783 219.361 596.61 220.035C596.419 220.633 596.071 221.169 595.603 221.588C595.135 222.007 594.564 222.293 593.949 222.418C593.334 222.542 592.696 222.501 592.102 222.297C591.509 222.093 590.98 221.735 590.571 221.259C590.705 222.215 590.551 223.19 590.129 224.059C589.707 224.928 589.036 225.651 588.201 226.137C587.774 226.334 587.308 226.43 586.839 226.42C586.369 226.41 585.908 226.293 585.49 226.078C585.072 225.863 584.709 225.556 584.427 225.18C584.146 224.804 583.953 224.369 583.865 223.907C583.865 223.907 584.964 228.197 580.04 227.531L583.509 198.106L590.617 191.308Z" fill="#263238"/>
<path d="M568.549 256.352C566.627 256.352 564.728 255.948 562.973 255.166C561.218 254.384 559.647 253.242 558.362 251.814C557.077 250.385 556.106 248.703 555.513 246.876C554.92 245.048 554.718 243.116 554.92 241.206C555.369 236.808 555.772 233.23 555.772 233.23C555.772 233.23 544.931 231.542 544.792 220.701C544.653 209.861 546.542 184.974 546.542 184.974C552.705 182.328 559.461 181.376 566.115 182.214C572.769 183.053 579.078 185.652 584.392 189.743L585.94 190.967L582.177 243.622C581.931 247.072 580.389 250.301 577.862 252.662C575.334 255.023 572.007 256.341 568.549 256.352V256.352Z" fill="#FFBE9D"/>
<path d="M549.329 204.549C549.553 204.341 549.71 204.073 549.781 203.777C549.852 203.48 549.834 203.17 549.73 202.884C549.625 202.597 549.439 202.348 549.193 202.168C548.948 201.987 548.655 201.883 548.351 201.868C548.046 201.853 547.744 201.928 547.483 202.084C547.221 202.24 547.011 202.469 546.879 202.744C546.747 203.019 546.699 203.326 546.741 203.628C546.783 203.93 546.913 204.212 547.115 204.44C547.252 204.595 547.418 204.721 547.604 204.811C547.791 204.9 547.993 204.951 548.199 204.961C548.406 204.972 548.612 204.94 548.806 204.869C549 204.799 549.178 204.69 549.329 204.549Z" fill="#263238"/>
<path d="M546.325 201.126C546.495 201.312 547.564 200.491 549.051 200.491C550.537 200.491 551.637 201.25 551.792 201.064C551.947 200.878 551.714 200.646 551.234 200.274C550.6 199.815 549.833 199.576 549.051 199.593C548.266 199.593 547.501 199.842 546.867 200.305C546.402 200.708 546.247 201.049 546.325 201.126Z" fill="#263238"/>
<path d="M563.531 203.403C563.353 203.508 563.198 203.647 563.075 203.813C562.952 203.979 562.863 204.168 562.814 204.368C562.765 204.569 562.757 204.777 562.79 204.981C562.822 205.185 562.895 205.38 563.004 205.555C563.109 205.735 563.25 205.892 563.417 206.017C563.584 206.141 563.774 206.231 563.977 206.28C564.179 206.329 564.389 206.337 564.595 206.303C564.8 206.269 564.997 206.194 565.173 206.082C565.351 205.976 565.507 205.834 565.63 205.667C565.753 205.499 565.84 205.309 565.888 205.106C565.936 204.904 565.942 204.694 565.907 204.489C565.872 204.284 565.796 204.089 565.684 203.914C565.577 203.737 565.437 203.584 565.271 203.462C565.104 203.341 564.915 203.254 564.715 203.206C564.514 203.158 564.306 203.151 564.103 203.185C563.9 203.219 563.705 203.293 563.531 203.403Z" fill="#263238"/>
<path d="M562.54 202.443C562.71 202.628 563.779 201.808 565.265 201.808C566.752 201.808 567.852 202.566 568.007 202.381C568.161 202.195 567.914 201.962 567.449 201.591C566.81 201.13 566.038 200.89 565.25 200.909C564.465 200.91 563.702 201.172 563.082 201.653C562.617 202.024 562.462 202.365 562.54 202.443Z" fill="#263238"/>
<path d="M556.562 214.755C555.788 214.459 554.973 214.287 554.146 214.243C553.759 214.243 553.449 214.12 553.418 213.903C553.402 213.512 553.499 213.125 553.697 212.788L554.874 209.69C555.998 207.127 556.855 204.454 557.429 201.715C556.057 204.177 554.937 206.771 554.084 209.458C553.697 210.511 553.325 211.518 552.969 212.555C552.709 213.056 552.633 213.631 552.752 214.182C552.807 214.33 552.896 214.463 553.011 214.571C553.127 214.678 553.266 214.757 553.418 214.801C553.636 214.857 553.859 214.888 554.084 214.894C554.912 214.99 555.75 214.943 556.562 214.755Z" fill="#263238"/>
<path d="M561.409 216.411C562.958 215.482 557.119 218.688 554.084 218.533C554.589 219.317 555.345 219.906 556.228 220.204C557.112 220.502 558.07 220.492 558.947 220.175C562.199 218.982 561.409 216.411 561.409 216.411Z" fill="white"/>
<path d="M555.679 233.075C560.683 233.168 565.6 231.766 569.803 229.049C569.803 229.049 566.458 236.792 555.648 235.878L555.679 233.075Z" fill="#EB996E"/>
<path d="M585.94 201.467C586.172 201.389 594.024 200.847 592.723 209.984C591.422 219.122 582.626 214.785 582.641 214.522C582.657 214.259 585.94 201.467 585.94 201.467Z" fill="#FFBE9D"/>
<path d="M585.894 211.719C585.894 211.719 586.033 211.858 586.296 212.013C586.469 212.123 586.662 212.197 586.864 212.232C587.067 212.266 587.273 212.261 587.473 212.215C588.117 211.923 588.672 211.465 589.08 210.888C589.488 210.311 589.735 209.636 589.796 208.931C589.941 208.154 589.904 207.353 589.688 206.593C589.642 206.296 589.525 206.014 589.347 205.771C589.169 205.528 588.935 205.332 588.666 205.199C588.489 205.121 588.289 205.11 588.105 205.167C587.92 205.223 587.762 205.345 587.659 205.509C587.504 205.741 587.535 205.927 587.473 205.942C587.411 205.958 587.303 205.757 587.473 205.4C587.552 205.175 587.712 204.987 587.922 204.874C588.059 204.794 588.211 204.743 588.368 204.724C588.525 204.705 588.684 204.719 588.836 204.765C589.199 204.909 589.518 205.144 589.763 205.448C590.007 205.752 590.168 206.115 590.23 206.5C590.512 207.343 590.576 208.243 590.416 209.117C590.348 209.938 590.038 210.721 589.525 211.366C589.012 212.011 588.32 212.49 587.535 212.741C587.279 212.776 587.019 212.754 586.772 212.676C586.526 212.599 586.3 212.467 586.11 212.292C585.878 211.936 585.863 211.734 585.894 211.719Z" fill="#EB996E"/>
<path d="M543.63 183.936C543.79 183.016 544.304 182.195 545.063 181.65C545.822 181.105 546.765 180.881 547.688 181.024C547.064 180.971 546.462 180.775 545.927 180.451C545.392 180.127 544.938 179.684 544.602 179.156C544.265 178.629 544.055 178.031 543.987 177.409C543.919 176.787 543.995 176.158 544.209 175.571C544.424 174.983 544.771 174.452 545.223 174.02C545.676 173.588 546.222 173.266 546.819 173.079C547.416 172.892 548.048 172.846 548.666 172.942C549.284 173.039 549.871 173.277 550.382 173.637C549.162 172.491 548.191 171.104 547.533 169.564C547.201 168.777 547.124 167.905 547.313 167.072C547.502 166.239 547.947 165.485 548.586 164.918C549.292 164.51 550.093 164.296 550.909 164.296C551.725 164.296 552.526 164.51 553.232 164.918C555.462 166.049 557.15 168.093 559.427 169.053C561.703 170.013 564.382 169.781 566.907 170.044C569.713 170.273 572.375 171.385 574.511 173.219C575.575 174.134 576.41 175.286 576.948 176.583C577.486 177.879 577.712 179.284 577.608 180.684C581.031 180.482 584.778 180.684 587.427 182.805C587.226 181.426 587.396 180.018 587.918 178.725C588.441 177.432 589.297 176.302 590.4 175.449C591.807 174.471 593.441 173.869 595.146 173.701C596.851 173.533 598.571 173.804 600.141 174.489C600.886 174.743 601.57 175.15 602.149 175.683C602.727 176.216 603.188 176.865 603.502 177.586C604.199 179.677 602.882 181.923 601.225 183.378C599.675 184.694 597.837 185.628 595.86 186.104C593.883 186.58 591.822 186.585 589.843 186.12C590.47 187.735 590.735 189.47 590.617 191.199C590.447 194.188 588.046 197.285 586.993 200.089L586.761 201.932L584.964 209.597L580.163 209.21L581.48 193.104C581.48 193.104 582.378 186.336 576.493 186.569C570.608 186.801 562.261 192.918 550.986 190.549C549.137 190.328 547.359 189.699 545.783 188.706C545.039 188.167 544.45 187.444 544.072 186.607C543.694 185.771 543.542 184.85 543.63 183.936V183.936Z" fill="#263238"/>
<path d="M606.77 191.013C605.864 191.707 604.799 192.165 603.672 192.345C600.935 192.967 598.067 192.632 595.548 191.394C593.028 190.157 591.009 188.093 589.827 185.546C589.273 184.541 588.98 183.412 588.976 182.263C589.115 182.263 589.363 183.518 590.338 185.361C591.588 187.689 593.535 189.568 595.908 190.732C598.28 191.896 600.958 192.287 603.564 191.85C605.546 191.447 606.708 190.858 606.77 191.013Z" fill="#263238"/>
<path d="M595.263 199.934C595.139 199.934 595.263 198.973 594.984 197.549C594.543 195.687 593.784 193.916 592.739 192.314C591.645 190.678 590.662 188.971 589.796 187.204C589.393 186.473 589.18 185.653 589.177 184.819C589.61 185.5 589.988 186.214 590.307 186.956C591.004 188.257 592.197 189.929 593.405 191.896C594.515 193.571 595.244 195.469 595.542 197.456C595.722 198.29 595.624 199.16 595.263 199.934V199.934Z" fill="#263238"/>
<path d="M515.026 289.509C509.636 286.23 504.429 282.658 499.431 278.808C493.438 273.744 493.871 273.186 494.568 272.613C496.427 270.956 505.409 281.131 504.743 277.786C504.077 274.44 492.354 266.666 494.336 265.025C496.969 262.872 506.199 273.697 507.05 274.549C507.902 275.401 509.141 274.177 508.336 273.449C507.174 272.396 495.281 261.06 497.836 258.923C499.261 257.73 501.088 260.549 501.088 260.549C501.088 260.549 511.464 272.025 512.641 270.971C513.818 269.918 507.995 262.965 505.827 260.766C503.659 258.567 503.86 256.693 505.579 256.522C506.741 256.414 513.446 262.98 515.522 265.195C517.597 267.409 523.141 273.62 522.831 268.292C522.522 262.965 524.225 258.721 525.464 257.901C526.703 257.08 528.267 258.567 527.679 260.115C527.206 261.862 526.977 263.665 526.997 265.474C526.952 266.926 527.151 268.376 527.586 269.763C527.957 270.956 528.329 272.009 528.685 272.938L532.325 282.958L523.188 294.527L515.026 289.509Z" fill="#FFBE9D"/>
<path d="M605.175 255.066C607.095 255.546 618.524 261.462 618.71 287.372C618.849 307.969 617.27 353.686 603.223 360.485C596.858 363.582 587.195 363.582 578.801 358.084C555.137 342.799 513.23 293.52 513.23 293.52L531.984 273.542C531.984 273.542 580.675 323.1 582.75 321.272C585.847 318.516 581.093 294.852 583.757 271.467C585.584 254.834 593.327 252.108 605.175 255.066Z" fill="#455A64"/>
<path d="M531.953 274.254C531.86 274.382 531.751 274.496 531.628 274.595L530.622 275.586C529.739 276.438 528.438 277.708 526.796 279.411C522.123 284.238 517.825 289.416 513.942 294.898V294.542C527.168 308.031 546.464 327.653 567.883 349.473C572.942 354.285 579.114 357.77 585.847 359.617C589.019 360.5 592.35 360.648 595.588 360.051C598.668 359.37 601.527 357.927 603.905 355.854C608.244 351.88 611.418 346.799 613.088 341.157C614.569 336.238 615.565 331.186 616.062 326.073C617.316 316.781 617.982 309.038 618.276 303.819C618.431 301.186 618.509 299.173 618.571 297.748V296.199C618.55 296.024 618.55 295.847 618.571 295.673C618.594 295.852 618.594 296.035 618.571 296.215C618.571 296.602 618.571 297.128 618.571 297.763C618.571 299.157 618.571 301.201 618.431 303.85C618.23 309.131 617.657 316.781 616.464 326.166C616.002 331.323 615.032 336.422 613.568 341.389C611.894 347.157 608.682 352.361 604.276 356.442C601.81 358.607 598.838 360.114 595.635 360.825C592.285 361.447 588.837 361.299 585.553 360.392C578.68 358.528 572.379 354.983 567.217 350.077C545.721 328.226 526.579 308.465 513.447 294.945L513.276 294.774L513.416 294.588C517.354 289.12 521.725 283.978 526.487 279.21C528.175 277.553 529.584 276.314 530.436 275.478L531.489 274.564L531.953 274.254Z" fill="#263238"/>
<path d="M531.969 273.542C531.969 273.542 532.077 273.542 532.232 273.759L532.96 274.487L535.732 277.29C538.132 279.737 541.648 283.237 546.062 287.526C550.475 291.816 555.803 296.927 561.812 302.533L571.289 311.314C574.619 314.318 578.057 317.509 581.743 320.513L581.108 320.823C581.216 318.995 581.325 317.06 581.433 315.108C582.053 304.872 582.626 295.115 583.152 286.241C583.478 281.812 583.555 277.584 584.035 273.635C584.392 269.942 585.41 266.344 587.04 263.011C588.391 260.241 590.44 257.871 592.986 256.135C594.933 254.86 597.171 254.098 599.491 253.92C600.947 253.799 602.412 253.978 603.796 254.447C604.282 254.589 604.745 254.798 605.174 255.066C605.174 255.066 604.694 254.865 603.75 254.602C602.372 254.209 600.932 254.083 599.506 254.23C597.26 254.462 595.106 255.244 593.234 256.507C590.797 258.249 588.837 260.576 587.535 263.274C585.983 266.561 585.019 270.093 584.686 273.712C584.252 277.615 584.205 281.843 583.896 286.272L582.239 315.139C582.13 317.091 582.006 319.042 581.913 320.854V321.644L581.309 321.164C577.531 318.066 574.155 314.969 570.825 311.872C567.495 308.774 564.367 305.863 561.362 303.044C555.385 297.391 550.088 292.203 545.721 287.914C541.354 283.624 537.9 279.984 535.562 277.476C534.369 276.237 533.502 275.245 532.898 274.564L532.232 273.805C532.031 273.635 531.953 273.542 531.969 273.542Z" fill="#263238"/>
<path d="M521.5 301.79C522.167 300.603 522.962 299.491 523.869 298.476C525.418 296.509 527.617 293.83 530.141 290.934C532.666 288.038 535.004 285.482 536.739 283.67C537.625 282.636 538.617 281.697 539.697 280.867C538.955 282.01 538.104 283.078 537.157 284.057L530.745 291.46L524.303 298.847C523.464 299.914 522.525 300.9 521.5 301.79V301.79Z" fill="#263238"/>
<path d="M585.971 332.453C585.014 330.56 584.226 328.586 583.617 326.553C582.743 324.62 582.038 322.615 581.511 320.56C583.807 324.171 585.326 328.222 585.971 332.453V332.453Z" fill="#263238"/>
<path d="M590.23 329.155C588.407 328.032 586.731 326.684 585.243 325.144C583.579 323.781 582.087 322.22 580.799 320.498C584.298 322.971 587.467 325.88 590.23 329.155Z" fill="#263238"/>
<path d="M126.372 559.861L76.6283 604.757L63 587.319L106.595 533.317L126.372 559.861Z" fill="#FFBE9D"/>
<path d="M77.7745 606.445L79.478 604.896L63.7745 585.615L56.697 591.81L57.6417 593.018C61.8696 598.392 79.5399 620.042 83.5975 622.551C88.1196 625.339 77.7745 606.445 77.7745 606.445Z" fill="#407BFF"/>
<g opacity="0.5">
<path opacity="0.5" d="M62.7831 598.407C64.109 596.755 64.7716 594.668 64.6415 592.553C64.5477 590.462 63.6618 588.486 62.1636 587.024L56.9756 591.67L62.7831 598.407Z" fill="white"/>
</g>
<path opacity="0.5" d="M82.5599 615.923C82.5599 615.923 85.843 622.861 84.3099 622.969C82.7767 623.078 64.1771 601.876 56.697 591.81L57.1461 591.469L78.7191 616.387C78.7191 616.387 81.5532 614.885 82.5599 615.923Z" fill="white"/>
<path d="M56.8982 591.175C56.9681 591.297 57.0512 591.411 57.146 591.516L57.8893 592.491L60.7234 595.991C63.1239 598.934 66.5155 602.945 70.3407 607.297C74.1659 611.648 77.7278 615.52 80.3451 618.292L83.4424 621.544L84.2942 622.412C84.3918 622.521 84.5008 622.62 84.6194 622.706L84.3407 622.365L83.5199 621.467C82.6991 620.553 81.677 619.454 80.4225 618.153C77.8517 615.35 74.3208 611.463 70.4955 607.111C66.6703 602.759 63.2632 598.764 60.8008 595.852L57.9048 592.414L57.115 591.485C57.054 591.374 56.9813 591.27 56.8982 591.175V591.175Z" fill="#263238"/>
<path d="M78.4246 616.635C79.1125 616.285 79.8406 616.02 80.5927 615.845C81.3594 615.758 82.1336 615.758 82.9002 615.845C82.1817 615.452 81.3421 615.342 80.5462 615.536C79.7278 615.628 78.9723 616.02 78.4246 616.635V616.635Z" fill="#263238"/>
<path d="M76.3806 608.706C76.7828 608.801 77.2018 608.801 77.6041 608.706C78.27 608.613 78.7965 608.458 78.7811 608.365C77.9613 608.296 77.1371 608.429 76.3806 608.752V608.706Z" fill="#263238"/>
<path d="M75.854 606.507C75.854 606.507 76.2876 606.708 76.8606 606.77C77.4337 606.832 77.8983 606.77 77.9137 606.77C77.9292 606.77 77.4646 606.569 76.8916 606.507C76.3186 606.445 75.854 606.414 75.854 606.507Z" fill="#263238"/>
<path d="M76.7676 604.014C76.7676 604.014 77.0309 604.54 77.4955 605.082C77.9601 605.624 78.3937 606.027 78.4556 605.965C78.5176 605.903 78.1924 605.438 77.7123 604.896C77.2322 604.354 76.8295 603.952 76.7676 604.014Z" fill="#263238"/>
<path d="M77.7124 602.589C77.7748 603.099 77.997 603.576 78.3474 603.951C78.8584 604.617 79.4314 605.005 79.4779 604.943C79.5243 604.881 79.0597 604.416 78.5951 603.766C78.3325 603.351 78.0373 602.957 77.7124 602.589V602.589Z" fill="#263238"/>
<path d="M78.5485 607.916C78.8327 608.368 79.1944 608.767 79.6171 609.093C80.0451 609.481 80.5122 609.824 81.0109 610.115C81.3012 610.316 81.6195 610.472 81.9556 610.58C82.1551 610.656 82.3756 610.656 82.5751 610.58C82.6828 610.522 82.7711 610.434 82.8289 610.327C82.8868 610.22 82.9116 610.097 82.9003 609.976C82.7802 609.559 82.5698 609.173 82.2838 608.846C81.9979 608.519 81.6436 608.26 81.2459 608.085C80.8483 607.911 80.4172 607.826 79.9831 607.837C79.549 607.848 79.1227 607.954 78.7344 608.148C78.599 608.211 78.4778 608.301 78.3782 608.412C78.8668 608.195 79.3925 608.074 79.9268 608.056C80.4739 608.049 81.0113 608.2 81.4755 608.489C81.762 608.656 82.0114 608.879 82.2085 609.145C82.4055 609.411 82.5461 609.715 82.6215 610.038C82.6215 610.348 82.3738 610.471 82.064 610.379C81.7585 610.264 81.4632 610.125 81.1813 609.96C80.6892 609.68 80.2182 609.364 79.772 609.016C78.9822 608.334 78.595 607.87 78.5485 607.916Z" fill="#263238"/>
<path d="M78.7654 608.272C79.1423 608.2 79.479 607.99 79.71 607.684C79.9935 607.371 80.1956 606.994 80.2985 606.584C80.3968 606.326 80.4241 606.046 80.3778 605.774C80.3315 605.502 80.2133 605.247 80.0353 605.036C79.9 604.94 79.7334 604.9 79.5693 604.923C79.4053 604.946 79.2562 605.03 79.1525 605.16C78.9895 605.355 78.8682 605.581 78.7963 605.825C78.6722 606.217 78.5993 606.623 78.5795 607.033C78.5208 607.403 78.5581 607.782 78.6879 608.133C78.745 607.774 78.776 607.412 78.7808 607.049C78.8404 606.665 78.9337 606.286 79.0596 605.918C79.168 605.531 79.5242 605.02 79.8494 605.268C79.965 605.45 80.0412 605.654 80.0732 605.868C80.1052 606.081 80.0923 606.299 80.0353 606.507C79.9515 606.878 79.7877 607.227 79.5552 607.529C79.3131 607.798 79.0489 608.047 78.7654 608.272V608.272Z" fill="#263238"/>
<path d="M62.303 587.071C62.303 587.071 62.8295 587.551 63.4645 588.48C64.3025 589.687 64.7903 591.102 64.8738 592.569C64.9279 594.032 64.5855 595.482 63.8826 596.766C63.3251 597.741 62.814 598.314 62.8605 598.314C62.907 598.314 63.0154 598.221 63.2322 597.989C63.5455 597.66 63.8208 597.296 64.053 596.905C64.852 595.61 65.2407 594.104 65.168 592.584C65.0815 591.062 64.5422 589.601 63.6193 588.387C63.3484 588.023 63.0366 587.69 62.6901 587.396C62.4733 587.148 62.3185 587.055 62.303 587.071Z" fill="#263238"/>
<path d="M66.6238 599.166C67.212 600.23 67.9356 601.214 68.7764 602.093C69.5455 603.042 70.4358 603.885 71.4247 604.602C71.4247 604.602 70.3406 603.394 69.0242 601.892C67.7078 600.389 66.7786 599.12 66.6238 599.166Z" fill="#263238"/>
<path d="M63.4491 595.511C63.3562 595.511 63.2788 595.836 63.1084 596.193C62.9381 596.549 62.7522 596.859 62.8142 596.921C62.8761 596.982 63.1859 596.75 63.3872 596.317C63.5885 595.883 63.5266 595.511 63.4491 595.511Z" fill="#263238"/>
<path d="M63.9449 592.631C63.8675 592.631 63.7745 592.909 63.7436 593.281C63.7126 593.653 63.7436 593.947 63.852 593.947C63.9604 593.947 64.0223 593.668 64.0533 593.297C64.0843 592.925 64.0223 592.631 63.9449 592.631Z" fill="#263238"/>
<path d="M63 589.983C63 589.983 63.1703 590.292 63.3097 590.648C63.4491 591.005 63.4801 591.33 63.573 591.345C63.6659 591.361 63.7743 590.974 63.573 590.54C63.3717 590.106 63.031 589.905 63 589.983Z" fill="#263238"/>
<path d="M62.1328 588.263C62.1328 588.263 62.1328 588.48 62.1328 588.682C62.1328 588.883 62.3341 589.038 62.4116 589.007C62.489 588.976 62.4116 588.79 62.4116 588.573C62.4116 588.356 62.2102 588.233 62.1328 588.263Z" fill="#263238"/>
<path d="M214.847 559.396L220.841 627.213H195.21L183.905 559.396H214.847Z" fill="#FFBE9D"/>
<path d="M220.097 627.848V625.571L195.21 625.463L195.504 634.863H197.053C203.898 634.987 231.836 635.049 236.343 633.5C241.206 631.828 220.097 627.848 220.097 627.848Z" fill="#407BFF"/>
<g opacity="0.5">
<path opacity="0.5" d="M204.301 634.337C203.864 632.262 202.672 630.424 200.956 629.18C199.27 627.954 197.188 627.402 195.117 627.631L195.365 634.553L204.301 634.337Z" fill="white"/>
</g>
<path opacity="0.5" d="M230.396 630.155C230.396 630.155 237.83 632.014 236.962 633.253C236.095 634.492 207.847 635.498 195.35 634.801V634.244L228.305 633.361C228.305 633.361 228.956 630.279 230.396 630.155Z" fill="white"/>
<path d="M194.978 634.306H195.411H196.635H201.126C204.936 634.306 210.186 634.306 215.978 634.042C221.77 633.779 227.02 633.547 230.814 633.283L235.305 632.943L236.529 632.819H236.947H236.529H235.305L230.799 633.067C227.004 633.283 221.77 633.547 215.978 633.748C210.186 633.949 204.936 634.042 201.126 634.089H196.635H195.411L194.978 634.306Z" fill="#263238"/>
<path d="M228.321 633.81C228.491 633.056 228.745 632.323 229.079 631.626C229.526 630.98 230.045 630.388 230.628 629.861C229.863 630.161 229.242 630.743 228.894 631.487C228.423 632.164 228.219 632.991 228.321 633.81V633.81Z" fill="#263238"/>
<path d="M220.887 630.356C220.964 630.356 221.305 629.969 221.646 629.381C221.987 628.792 222.203 628.297 222.126 628.25C221.81 628.524 221.557 628.862 221.383 629.241C221.139 629.573 220.97 629.953 220.887 630.356Z" fill="#263238"/>
<path d="M218.858 629.381C218.858 629.381 219.292 629.164 219.71 628.761C220.128 628.359 220.407 627.987 220.345 627.94C220.283 627.894 219.912 628.142 219.493 628.544C219.075 628.947 218.797 629.288 218.858 629.381Z" fill="#263238"/>
<path d="M217.511 627.089C217.925 627.224 218.365 627.261 218.796 627.197C219.237 627.234 219.681 627.176 220.097 627.027C219.679 626.884 219.234 626.842 218.796 626.903C218.084 626.918 217.511 626.996 217.511 627.089Z" fill="#263238"/>
<path d="M217 625.447C217.435 625.719 217.944 625.849 218.456 625.819C218.985 625.905 219.528 625.818 220.004 625.571C219.521 625.52 219.033 625.52 218.549 625.571C218.037 625.486 217.519 625.444 217 625.447V625.447Z" fill="#263238"/>
<path d="M221.646 628.173C222.158 628.263 222.682 628.263 223.195 628.173C223.769 628.079 224.334 627.934 224.883 627.739C225.213 627.63 225.53 627.485 225.827 627.305C226.015 627.189 226.153 627.007 226.215 626.794C226.233 626.677 226.218 626.556 226.172 626.447C226.125 626.337 226.049 626.243 225.951 626.175C225.335 625.893 224.64 625.837 223.986 626.015C223.332 626.193 222.762 626.595 222.374 627.151C222.136 627.472 221.972 627.842 221.894 628.235C221.857 628.372 221.857 628.516 221.894 628.653C222.05 628.162 222.28 627.697 222.575 627.275C222.918 626.848 223.374 626.526 223.892 626.345C224.193 626.219 224.517 626.154 224.844 626.154C225.171 626.154 225.495 626.219 225.796 626.345C226.06 626.531 225.967 626.825 225.688 627.011C225.411 627.17 225.121 627.305 224.821 627.414C224.293 627.619 223.749 627.78 223.195 627.894C222.265 628.095 221.646 628.126 221.646 628.173Z" fill="#263238"/>
<path d="M222.08 628.235C222.252 627.896 222.301 627.507 222.219 627.135C222.158 626.719 221.993 626.325 221.739 625.989C221.603 625.753 221.406 625.557 221.169 625.421C220.933 625.285 220.665 625.214 220.392 625.215C220.232 625.259 220.096 625.361 220.009 625.502C219.923 625.643 219.894 625.812 219.927 625.974C219.966 626.227 220.067 626.466 220.221 626.671C220.44 627.015 220.706 627.328 221.011 627.6C221.262 627.883 221.582 628.096 221.94 628.219C221.94 628.219 221.615 627.941 221.15 627.46C220.894 627.17 220.661 626.859 220.454 626.531C220.221 626.191 220.051 625.602 220.454 625.509C220.856 625.416 221.274 625.85 221.522 626.144C221.757 626.444 221.921 626.794 222.002 627.166C222.057 627.52 222.083 627.877 222.08 628.235V628.235Z" fill="#263238"/>
<path d="M195.318 627.522C195.318 627.522 196.031 627.429 197.146 627.522C198.612 627.649 200.013 628.185 201.188 629.071C202.358 629.949 203.264 631.134 203.805 632.493C204.223 633.547 204.285 634.259 204.347 634.243C204.371 634.079 204.371 633.912 204.347 633.748C204.28 633.3 204.171 632.859 204.022 632.432C203.53 630.99 202.612 629.732 201.389 628.823C200.16 627.93 198.695 627.418 197.177 627.352C196.723 627.313 196.267 627.313 195.814 627.352C195.64 627.38 195.473 627.438 195.318 627.522V627.522Z" fill="#263238"/>
<path d="M207.336 631.843C208.53 632.072 209.748 632.139 210.96 632.045C212.176 632.054 213.389 631.908 214.568 631.611C214.568 631.518 212.942 631.689 210.944 631.751C208.947 631.812 207.336 631.766 207.336 631.843Z" fill="#263238"/>
<path d="M202.489 631.983C202.489 631.983 202.628 632.323 202.814 632.68C203 633.036 203.093 633.376 203.17 633.376C203.248 633.376 203.294 632.974 203.077 632.556C202.861 632.137 202.535 631.921 202.489 631.983Z" fill="#263238"/>
<path d="M200.584 629.783C200.584 629.783 200.693 630.093 200.956 630.341C201.219 630.588 201.482 630.743 201.544 630.681C201.606 630.619 201.436 630.372 201.157 630.124C200.878 629.876 200.631 629.721 200.584 629.783Z" fill="#263238"/>
<path d="M197.936 628.823C197.936 628.916 198.276 628.901 198.648 629.009C199.02 629.118 199.283 629.319 199.345 629.257C199.407 629.195 199.19 628.854 198.726 628.731C198.261 628.607 197.905 628.762 197.936 628.823Z" fill="#263238"/>
<path d="M196.046 628.405C196.046 628.483 196.17 628.607 196.372 628.684C196.573 628.761 196.774 628.684 196.805 628.684C196.836 628.684 196.681 628.483 196.48 628.405C196.279 628.328 196.077 628.328 196.046 628.405Z" fill="#263238"/>
<path d="M169.796 360.361C169.796 360.361 189.852 493.546 186.94 500.035C184.029 506.524 119.062 572.978 119.062 572.978L94.6548 531.226C94.6548 531.226 137.646 483.604 137.026 481.142C136.407 478.679 106.053 349.644 106.053 349.644L169.796 360.361Z" fill="#263238"/>
<path d="M176.936 409.547C176.734 408.122 160.551 371.744 160.551 371.744L168.403 360.655L169.796 360.361L176.936 409.547Z" fill="#263238"/>
<path d="M94.6547 347.817L93.4313 352.757C89.8883 367.335 92.1073 382.719 99.626 395.702L153.953 489.907C157.813 496.582 160.623 503.811 162.285 511.341L175.836 572.297H220.438C220.438 572.297 214.925 530.483 210.015 499.989C206.299 476.96 175.48 405.52 160.551 371.697L169.843 360.314L153.783 357.635L94.6547 347.817Z" fill="#263238"/>
<path d="M161.728 371.48C162.351 373.517 163.111 375.509 164.005 377.443C165.553 381.082 167.536 386.115 169.704 391.706C171.872 397.297 173.777 402.407 175.14 406.093C175.794 408.119 176.58 410.101 177.494 412.024C177.437 411.448 177.307 410.88 177.106 410.336C176.812 409.283 176.347 407.75 175.744 405.876C174.52 402.128 172.646 397.002 170.54 391.381C168.434 385.759 166.219 380.772 164.578 377.195C163.757 375.398 163.029 373.958 162.58 372.982C162.364 372.446 162.077 371.941 161.728 371.48V371.48Z" fill="#455A64"/>
<path d="M166.606 529.848C166.641 529.497 166.641 529.145 166.606 528.794C166.513 528.005 166.405 527.014 166.265 525.775C166.111 524.178 165.873 522.591 165.553 521.02C165.197 519.193 164.856 517.071 164.252 514.825C163.973 513.679 163.679 512.471 163.369 511.233C163.06 509.994 162.626 508.708 162.223 507.376C161.48 504.697 160.427 501.925 159.405 498.983C156.976 492.644 154.211 486.441 151.119 480.398C145.394 469.531 139.055 458.999 132.133 448.852C129.515 444.949 127.347 441.806 125.829 439.653L124.08 437.252C123.883 436.959 123.66 436.684 123.414 436.432C123.547 436.76 123.719 437.072 123.925 437.361L125.551 439.916C127.099 442.224 129.113 445.383 131.622 449.208C136.717 457.106 143.748 468.071 150.345 480.801C153.392 486.793 156.136 492.933 158.568 499.199C159.606 502.111 160.69 504.867 161.464 507.516C161.867 508.832 162.285 510.102 162.641 511.341C162.998 512.58 163.276 513.757 163.571 514.903C164.221 517.164 164.593 519.255 164.995 521.098C165.398 522.941 165.677 524.505 165.863 525.744C166.049 526.983 166.234 527.958 166.374 528.733C166.408 529.112 166.486 529.486 166.606 529.848Z" fill="#455A64"/>
<path d="M101.98 391.257C101.98 391.257 101.856 391.117 101.64 390.792L100.695 389.243C101.439 388.074 102.413 387.067 103.558 386.284C104.702 385.502 105.994 384.959 107.354 384.69C109.388 384.233 111.491 384.169 113.549 384.504C115.965 384.927 118.339 385.564 120.642 386.409C123.302 387.231 125.892 388.267 128.385 389.507C131.231 390.924 133.469 393.322 134.688 396.259C135.296 397.862 135.399 399.613 134.982 401.277C134.474 402.888 133.805 404.445 132.985 405.923C132.147 407.363 131.694 408.995 131.668 410.661C131.804 412.343 132.573 413.91 133.821 415.044C136.794 418.002 141.193 418.544 144.832 420.387C148.384 422.184 151.278 425.057 153.102 428.595C154.814 431.741 155.618 435.302 155.425 438.878C155.242 441.996 154.237 445.009 152.513 447.613C150.052 451.393 146.376 454.223 142.091 455.635C140.937 455.998 139.748 456.242 138.544 456.363C138.127 456.394 137.708 456.394 137.29 456.363C138.866 456.132 140.42 455.77 141.936 455.279C146.078 453.791 149.608 450.969 151.971 447.257C153.604 444.725 154.544 441.809 154.697 438.801C154.843 435.349 154.045 431.922 152.39 428.889C150.613 425.505 147.825 422.761 144.414 421.038C142.664 420.17 140.697 419.582 138.73 418.838C136.669 418.159 134.778 417.045 133.186 415.571C131.794 414.292 130.941 412.531 130.801 410.646C130.829 408.845 131.314 407.082 132.21 405.52C133.014 404.081 133.673 402.567 134.177 400.998C134.56 399.483 134.462 397.886 133.898 396.429C132.766 393.651 130.664 391.379 127.982 390.033C125.532 388.773 122.984 387.711 120.363 386.858C118.111 385.992 115.783 385.339 113.409 384.907C111.426 384.542 109.39 384.569 107.416 384.984C106.095 385.228 104.836 385.73 103.709 386.461C102.582 387.191 101.611 388.137 100.85 389.243V389.243L101.701 390.792C101.812 390.936 101.905 391.092 101.98 391.257V391.257Z" fill="#FAFAFA"/>
<path d="M214.584 530.018C213.489 529.057 212.251 528.273 210.914 527.695C209.318 527.069 207.655 526.632 205.958 526.394C203.991 526.069 201.699 525.867 199.19 525.465C196.41 525.066 193.727 524.158 191.276 522.786C186.585 520.162 183.008 515.922 181.21 510.856C179.412 505.791 179.517 500.244 181.504 495.25C182.976 491.611 185.19 488.452 185.81 484.936C186.202 481.496 185.701 478.013 184.354 474.823C183.176 471.865 182.173 468.84 181.349 465.764C180.682 463.021 180.682 460.159 181.349 457.416C182.32 453.445 184.56 449.9 187.73 447.319C188.863 446.359 190.151 445.6 191.54 445.073C190.276 445.806 189.069 446.634 187.931 447.551C184.922 450.164 182.814 453.66 181.907 457.54C181.265 460.197 181.265 462.968 181.907 465.624C182.768 468.664 183.803 471.653 185.004 474.575C186.42 477.877 186.954 481.49 186.553 485.06C185.903 488.823 183.626 492.029 182.232 495.56C180.312 500.374 180.195 505.72 181.902 510.615C183.609 515.509 187.026 519.622 191.524 522.197C193.918 523.566 196.543 524.485 199.268 524.907C201.746 525.341 204.038 525.573 206.02 525.945C207.745 526.251 209.426 526.771 211.022 527.494C212.027 527.944 212.961 528.539 213.794 529.259C214.336 529.708 214.615 529.987 214.584 530.018Z" fill="#FAFAFA"/>
<path d="M193.77 574.449C193.615 574.449 193.569 572.436 192.763 569.323C192.29 567.504 191.642 565.736 190.827 564.042C189.809 561.979 188.579 560.028 187.157 558.219C185.701 556.436 184.06 554.811 182.263 553.372C180.787 552.19 179.2 551.152 177.524 550.275C174.659 548.819 172.692 548.339 172.739 548.184C173.215 548.189 173.687 548.278 174.133 548.447C174.661 548.566 175.178 548.727 175.681 548.927C176.38 549.161 177.063 549.44 177.726 549.763C179.479 550.569 181.14 551.56 182.681 552.721C186.464 555.584 189.476 559.341 191.447 563.655C192.25 565.407 192.863 567.239 193.274 569.122C193.447 569.841 193.571 570.57 193.646 571.306C193.734 571.853 193.776 572.408 193.77 572.963C193.856 573.454 193.856 573.958 193.77 574.449V574.449Z" fill="#FAFAFA"/>
<path d="M170.881 399.264C170.881 399.264 170.679 399.264 170.277 399.387C169.686 399.471 169.092 399.523 168.496 399.542C166.306 399.615 164.116 399.38 161.991 398.845C158.819 398.081 155.816 396.737 153.133 394.881C149.789 392.647 147.039 389.632 145.121 386.097C143.202 382.563 142.173 378.615 142.122 374.593C142.049 371.33 142.574 368.081 143.67 365.007C144.388 362.933 145.389 360.968 146.644 359.168C146.975 358.681 147.337 358.215 147.728 357.775C147.991 357.465 148.146 357.31 148.162 357.326C146.512 359.767 145.185 362.411 144.212 365.193C143.231 368.22 142.791 371.397 142.912 374.578C142.994 378.465 143.998 382.277 145.839 385.701C147.68 389.125 150.307 392.064 153.504 394.277C156.102 396.109 159 397.472 162.069 398.303C164.951 399.01 167.914 399.332 170.881 399.264Z" fill="#FAFAFA"/>
<path d="M131.172 486.16C131.472 486.263 131.762 486.393 132.04 486.547C132.613 486.81 133.418 487.259 134.44 487.863C137.334 489.618 139.897 491.866 142.013 494.507C143.475 496.36 144.597 498.457 145.327 500.702C146.138 503.301 146.319 506.056 145.854 508.739C145.39 511.748 143.954 514.522 141.765 516.638C139.473 518.868 136.113 519.611 134.161 522.058C132.21 524.505 131.776 527.711 131.482 530.7C131.388 533.67 130.866 536.612 129.934 539.434C128.883 541.984 126.97 544.084 124.529 545.365C122.453 546.498 120.164 547.184 117.807 547.379C114.431 547.565 111.047 547.23 107.772 546.388C106.611 546.109 105.728 545.877 105.124 545.706C104.813 545.647 104.511 545.548 104.226 545.412C104.544 545.427 104.861 545.474 105.17 545.551L107.834 546.078C111.086 546.796 114.424 547.041 117.746 546.806C120.009 546.587 122.203 545.902 124.188 544.792C126.477 543.556 128.267 541.564 129.252 539.155C130.123 536.391 130.608 533.519 130.692 530.622C130.806 529.057 131.044 527.503 131.405 525.976C131.768 524.355 132.5 522.84 133.542 521.547C135.772 518.868 139.148 518.14 141.285 516.065C143.355 514.076 144.72 511.466 145.172 508.631C145.632 506.051 145.484 503.4 144.739 500.888C144.057 498.718 143.01 496.68 141.642 494.863C139.597 492.237 137.132 489.966 134.347 488.142C133.372 487.492 132.582 487.011 132.04 486.702C131.729 486.558 131.438 486.376 131.172 486.16V486.16Z" fill="#FAFAFA"/>
<path d="M135.927 165.708C127.332 163.571 118.086 168.945 113.812 176.688C109.538 184.432 109.491 193.925 111.505 202.536C112.356 206.144 113.549 209.876 112.713 213.5C111.814 217.387 108.717 220.407 107.23 224.124C104.396 231.294 108.005 239.239 111.536 246.084C113.084 249.182 115.206 252.666 118.644 253.348C122.5 254.106 125.892 251.025 129.144 248.81C134.885 244.936 141.871 243.361 148.719 244.396C156.463 245.589 163.463 250.033 171.237 250.173C174.758 250.198 178.229 249.339 181.333 247.675C184.436 246.011 187.072 243.595 189 240.648C191.308 237.04 192.097 231.604 188.768 228.94C186.569 227.19 183.208 227.252 181.272 225.208C178.918 222.715 179.94 218.704 181.148 215.513C182.356 212.323 183.564 208.421 181.412 205.757C179.011 202.752 173.808 203.325 171.516 200.244C169.224 197.162 171.64 192.5 171.516 188.412C171.363 186.611 170.807 184.868 169.887 183.313C168.967 181.758 167.708 180.43 166.204 179.429C163.292 177.308 162.89 176.626 158.878 169.332" fill="#263238"/>
<path d="M123.94 236.529L154.914 239.177C154.914 239.177 177.478 235.878 186.119 293.102L220.407 291.693L221.956 314.489L174.798 316.812L169.239 313.482L169.796 360.361L91.7896 354.615C93.5551 343.976 101.872 329.976 104.659 320.993C101.825 313.9 86.1525 284.987 85.3781 270.135C83.272 229.467 123.94 236.529 123.94 236.529Z" fill="#407BFF"/>
<path opacity="0.3" d="M172.723 278.482C172.723 278.482 178.206 284.677 178.299 289.896C178.438 298.259 176.332 302.549 178.949 311.686L171.484 313.482C171.484 313.482 170.338 311.252 171.314 306.482C172.29 301.713 174.179 295.905 175.015 290.717C175.758 286.496 174.943 282.149 172.723 278.482Z" fill="black"/>
<path d="M171.484 313.483C171.256 312.895 171.1 312.281 171.02 311.655C170.8 309.948 170.8 308.22 171.02 306.514C171.351 304.006 171.869 301.526 172.569 299.095C173.449 296.16 174.132 293.17 174.613 290.144C175.072 287.149 174.747 284.086 173.668 281.255C172.679 278.988 171.33 276.896 169.672 275.06C166.854 271.854 164.856 270.073 165.026 269.965C165.555 270.301 166.048 270.691 166.498 271.126C167.788 272.243 169.013 273.432 170.168 274.688C171.94 276.54 173.381 278.682 174.427 281.022C175.601 283.97 175.959 287.18 175.465 290.314C174.993 293.38 174.284 296.404 173.343 299.359C172.61 301.752 172.025 304.188 171.593 306.653C171.333 308.317 171.245 310.004 171.33 311.686C171.443 312.278 171.495 312.88 171.484 313.483V313.483Z" fill="#263238"/>
<g opacity="0.2">
<path opacity="0.2" d="M172.507 312.894L149.4 313.421C147.569 313.594 145.722 313.377 143.98 312.786C141.549 311.763 139.984 309.394 138.622 307.133C134.564 300.443 130.847 293.567 127.471 286.505C127.471 286.505 133.573 305.91 137.398 314.381C137.77 315.45 138.538 316.335 139.544 316.854C140.55 317.373 141.717 317.485 142.803 317.168C152.859 317.187 162.864 315.747 172.507 312.894V312.894Z" fill="black"/>
</g>
<path d="M323.564 261.788C326.971 261.545 330.383 262.18 333.476 263.631C334.793 264.273 336.238 264.612 337.704 264.622H341.482V216.071C341.482 215.091 341.289 214.121 340.914 213.217C340.538 212.312 339.988 211.49 339.295 210.798C338.602 210.106 337.779 209.558 336.873 209.184C335.968 208.811 334.997 208.62 334.018 208.622H285.668V205.339C285.684 203.817 286.044 202.319 286.721 200.956C288.562 197.181 289.159 192.919 288.425 188.783C287.565 183.812 284.871 179.345 280.875 176.265C276.878 173.186 271.872 171.719 266.846 172.155C261.819 172.591 257.14 174.899 253.734 178.621C250.328 182.342 248.444 187.207 248.454 192.252C248.453 195.043 249.039 197.802 250.173 200.352C250.746 201.629 251.052 203.01 251.071 204.409V208.622H203.914C201.938 208.622 200.043 209.407 198.646 210.804C197.249 212.201 196.465 214.095 196.465 216.071V347.228C196.465 348.025 196.622 348.815 196.927 349.551C197.232 350.288 197.679 350.957 198.243 351.521C198.806 352.084 199.476 352.532 200.212 352.837C200.949 353.142 201.738 353.299 202.535 353.299H335.412C337.02 353.295 338.562 352.654 339.7 351.516C340.837 350.379 341.478 348.837 341.482 347.228V299.823H336.108C334.866 299.825 333.635 300.067 332.485 300.536C330.105 301.507 327.559 302.007 324.989 302.007C319.649 302.196 314.453 300.256 310.544 296.614C306.635 292.972 304.333 287.926 304.144 282.586C303.955 277.247 305.895 272.051 309.537 268.142C313.179 264.233 318.225 261.93 323.564 261.741V261.788Z" fill="#407BFF"/>
<path opacity="0.2" d="M323.564 261.788C326.971 261.545 330.383 262.18 333.476 263.631C334.793 264.273 336.238 264.612 337.704 264.622H341.482V216.071C341.482 215.091 341.289 214.121 340.914 213.217C340.538 212.312 339.988 211.49 339.295 210.798C338.602 210.106 337.779 209.558 336.873 209.184C335.968 208.811 334.997 208.62 334.018 208.622H285.668V205.339C285.684 203.817 286.044 202.319 286.721 200.956C288.562 197.181 289.159 192.919 288.425 188.783C287.565 183.812 284.871 179.345 280.875 176.265C276.878 173.186 271.872 171.719 266.846 172.155C261.819 172.591 257.14 174.899 253.734 178.621C250.328 182.342 248.444 187.207 248.454 192.252C248.453 195.043 249.039 197.802 250.173 200.352C250.746 201.629 251.052 203.01 251.071 204.409V208.622H203.914C201.938 208.622 200.043 209.407 198.646 210.804C197.249 212.201 196.465 214.095 196.465 216.071V347.228C196.465 348.025 196.622 348.815 196.927 349.551C197.232 350.288 197.679 350.957 198.243 351.521C198.806 352.084 199.476 352.532 200.212 352.837C200.949 353.142 201.738 353.299 202.535 353.299H335.412C337.02 353.295 338.562 352.654 339.7 351.516C340.837 350.379 341.478 348.837 341.482 347.228V299.823H336.108C334.866 299.825 333.635 300.067 332.485 300.536C330.105 301.507 327.559 302.007 324.989 302.007C319.649 302.196 314.453 300.256 310.544 296.614C306.635 292.972 304.333 287.926 304.144 282.586C303.955 277.247 305.895 272.051 309.537 268.142C313.179 264.233 318.225 261.93 323.564 261.741V261.788Z" fill="white"/>
<path d="M123.522 237.613L121.122 182.945L142.803 166.498L162.533 176.146C162.533 176.146 163.199 200.925 162.533 211.673C161.867 222.42 151.042 223.567 151.042 223.567C151.042 223.567 151.305 229.854 151.553 236.467C151.624 238.366 151.31 240.259 150.628 242.033C149.946 243.807 148.912 245.424 147.587 246.786C146.262 248.149 144.675 249.228 142.921 249.959C141.167 250.69 139.283 251.058 137.383 251.04V251.04C133.794 250.996 130.359 249.58 127.782 247.083C125.204 244.587 123.68 241.198 123.522 237.613V237.613Z" fill="#FFBE9D"/>
<path d="M160.427 194.204C160.427 194.476 160.346 194.743 160.195 194.97C160.043 195.196 159.828 195.373 159.576 195.477C159.324 195.581 159.047 195.609 158.78 195.556C158.512 195.502 158.267 195.371 158.074 195.178C157.881 194.986 157.75 194.74 157.697 194.473C157.643 194.205 157.671 193.928 157.775 193.676C157.879 193.424 158.056 193.209 158.283 193.058C158.509 192.906 158.776 192.825 159.048 192.825C159.414 192.825 159.765 192.971 160.023 193.229C160.282 193.488 160.427 193.838 160.427 194.204Z" fill="#263238"/>
<path d="M161.759 192.702C161.573 192.887 160.566 192.02 159.08 191.943C157.593 191.865 156.493 192.578 156.339 192.376C156.184 192.175 156.447 191.958 156.927 191.633C157.579 191.204 158.352 190.997 159.131 191.045C159.91 191.092 160.653 191.391 161.248 191.896C161.697 192.283 161.836 192.562 161.759 192.702Z" fill="#263238"/>
<path d="M144.491 194.204C144.491 194.476 144.41 194.743 144.259 194.97C144.107 195.196 143.892 195.373 143.64 195.477C143.388 195.581 143.111 195.609 142.844 195.556C142.576 195.502 142.331 195.371 142.138 195.178C141.945 194.986 141.814 194.74 141.761 194.473C141.708 194.205 141.735 193.928 141.839 193.676C141.944 193.424 142.12 193.209 142.347 193.058C142.574 192.906 142.84 192.825 143.113 192.825C143.478 192.825 143.829 192.971 144.087 193.229C144.346 193.488 144.491 193.838 144.491 194.204Z" fill="#263238"/>
<path d="M145.343 192.702C145.157 192.887 144.151 192.02 142.664 191.943C141.177 191.865 140.078 192.578 139.923 192.376C139.768 192.175 140.031 191.958 140.511 191.633C141.145 191.204 141.899 190.988 142.664 191.014C143.444 191.064 144.187 191.363 144.786 191.865C145.281 192.283 145.421 192.562 145.343 192.702Z" fill="#263238"/>
<path d="M151.089 223.536C145.982 223.319 141.045 221.648 136.856 218.719C136.856 218.719 140.418 226.757 151.197 226.323L151.089 223.536Z" fill="#EB996E"/>
<path d="M150.686 205.215C151.477 205.021 152.288 204.917 153.102 204.905C153.474 204.905 153.845 204.905 153.938 204.564C153.981 204.149 153.906 203.731 153.721 203.356C153.401 202.396 153.061 201.364 152.699 200.259C152.002 198.075 151.398 196.093 150.98 194.653C150.706 193.882 150.524 193.082 150.438 192.268C150.845 192.975 151.162 193.729 151.383 194.514C151.894 195.938 152.575 197.89 153.272 200.073L154.248 203.171C154.471 203.655 154.52 204.202 154.387 204.719C154.333 204.851 154.248 204.969 154.141 205.063C154.033 205.157 153.906 205.225 153.768 205.261C153.552 205.281 153.334 205.281 153.117 205.261C152.308 205.343 151.492 205.328 150.686 205.215V205.215Z" fill="#263238"/>
<path d="M149.586 206.5C149.005 206.653 148.472 206.952 148.038 207.367C147.77 207.593 147.594 207.909 147.543 208.255C147.491 208.601 147.567 208.954 147.757 209.248C147.947 209.542 148.237 209.757 148.574 209.853C148.91 209.948 149.27 209.918 149.586 209.768C149.87 209.706 150.137 209.584 150.369 209.411C150.602 209.237 150.794 209.016 150.934 208.761C151.064 208.496 151.116 208.199 151.083 207.905C151.05 207.612 150.934 207.334 150.748 207.104C150.554 206.895 150.296 206.759 150.014 206.717C149.733 206.674 149.445 206.729 149.199 206.872" fill="#EB996E"/>
<path d="M151.507 208.637C151.507 208.854 150.283 209.195 148.967 208.436C147.65 207.677 147.294 206.423 147.511 206.376C147.728 206.33 148.285 207.151 149.369 207.739C150.454 208.328 151.476 208.405 151.507 208.637Z" fill="#263238"/>
<path d="M144.011 164.361C141.735 164.282 139.47 164.706 137.376 165.603C135.283 166.499 133.413 167.847 131.9 169.549C128.896 173.025 127.368 177.537 127.641 182.124C127.611 183.847 128.156 185.531 129.19 186.909C130.739 188.69 133.356 189.047 135.726 189.279C138.132 189.725 140.61 189.597 142.958 188.907C145.25 188.024 147.155 185.655 146.644 183.27C145.513 184.819 146.458 187.111 148.068 188.086C149.773 188.922 151.677 189.266 153.566 189.078H161.681C162.607 189.169 163.539 188.969 164.345 188.505C164.778 188.064 165.119 187.541 165.348 186.966C165.577 186.392 165.689 185.778 165.677 185.159C166.111 180.839 166.513 176.239 164.531 172.383C162.562 168.966 159.349 166.442 155.564 165.336C151.863 164.113 147.821 164.67 143.964 164.423" fill="#263238"/>
<path d="M121.122 236.064C124.08 237.613 129.686 231.511 131.513 228.708C133.14 225.755 133.688 222.327 133.062 219.013C132.675 215.684 131.792 212.416 131.715 209.071C131.606 203.651 133.65 198.463 134.611 193.12C135.641 187.308 135.392 181.341 133.883 175.635C133.294 173.421 132.334 170.989 130.166 170.153C129.26 169.85 128.29 169.793 127.354 169.986C126.419 170.179 125.551 170.616 124.838 171.252C123.436 172.546 122.337 174.132 121.617 175.898L119.898 188.938L121.184 207.197L121.122 236.064Z" fill="#263238"/>
<path d="M199.082 304.826L206.98 331.773C206.98 331.773 165.646 346.81 143.268 346.531C122.283 346.284 116.274 343.899 108.903 326.956C101.531 310.014 93.1061 290.562 91.387 279.365C91.387 279.365 74.522 232.565 119.681 237.18L125.876 272.799C125.876 272.799 130.878 289.323 131.234 290.284C134.61 299.204 138.978 312.275 143.206 313.854C147.434 315.434 199.082 304.826 199.082 304.826Z" fill="#407BFF"/>
<path d="M199.082 304.826C198.732 304.957 198.368 305.051 197.998 305.104L194.9 305.77C192.144 306.343 188.148 307.195 183.193 308.341C178.237 309.487 172.352 310.896 165.6 312.135C158.267 313.589 150.804 314.28 143.33 314.195H143.066L142.973 313.947C142.122 311.733 141.223 309.394 140.372 307.009C134.425 290.299 129.903 274.936 126.248 263.941C124.436 258.427 122.918 253.983 121.834 250.932C121.323 249.383 120.905 248.284 120.595 247.416C120.427 247.011 120.297 246.591 120.208 246.162C120.208 246.162 120.409 246.565 120.75 247.354C121.091 248.144 121.555 249.306 122.128 250.823C123.305 253.843 124.9 258.257 126.774 263.755C130.584 274.719 135.199 290.082 141.131 306.73C141.982 309.115 142.865 311.376 143.717 313.653L143.345 313.405C150.769 313.498 158.183 312.844 165.476 311.454C172.166 310.246 178.097 308.868 183.084 307.83C188.071 306.792 192.066 305.987 194.854 305.492L198.044 304.98C198.387 304.91 198.733 304.859 199.082 304.826Z" fill="#263238"/>
<path d="M206.98 331.772C206.596 331.995 206.191 332.182 205.772 332.33C204.967 332.671 203.774 333.135 202.226 333.708C199.128 334.854 194.575 336.372 188.892 338.029C183.208 339.686 176.409 341.498 168.836 343.418C160.644 345.704 152.245 347.172 143.763 347.801C141.522 347.908 139.275 347.851 137.042 347.631C134.855 347.43 132.698 346.978 130.615 346.283C126.713 344.871 123.137 342.685 120.1 339.856C115.075 335.009 110.888 329.363 107.71 323.146C104.923 317.927 103.064 313.529 101.732 310.478C101.097 308.929 100.617 307.768 100.308 306.947C100.12 306.549 99.9699 306.134 99.8584 305.708C100.095 306.079 100.292 306.474 100.447 306.885C100.834 307.753 101.361 308.899 101.996 310.354C103.374 313.359 105.341 317.71 108.19 322.883C111.402 328.991 115.587 334.535 120.58 339.299C123.558 342.024 127.048 344.129 130.847 345.494C132.856 346.157 134.935 346.589 137.042 346.779C139.239 346.999 141.449 347.056 143.655 346.949C152.081 346.329 160.427 344.887 168.573 342.644C176.161 340.77 182.976 339.036 188.706 337.441C194.436 335.845 198.958 334.343 202.086 333.368L205.679 332.129C206.103 331.977 206.538 331.858 206.98 331.772V331.772Z" fill="#263238"/>
<path opacity="0.2" d="M107.354 322.867C107.354 322.867 115.097 352.602 135.23 351.998C155.363 351.394 174.272 342.783 174.272 342.783L173.374 341.854C173.374 341.854 139.303 349.195 129.841 344.58C111.861 335.845 107.354 322.867 107.354 322.867Z" fill="black"/>
<path d="M204.177 328.675H210.511C216.257 328.118 219.462 328.025 221.073 326.507C223.226 324.447 220.268 322.449 220.268 322.449C220.268 322.449 224.418 321.009 224.031 318.485C223.768 316.75 221.801 316.564 221.801 316.564C221.801 316.564 225.471 315.124 226.199 313.591C227.175 311.516 224.65 310.401 224.65 310.401C229.653 307.303 229.204 304.206 228.042 303.958C226.881 303.71 222.993 305.507 222.993 305.507C219.695 306.452 210.697 309.193 214.027 304.237C217.356 299.281 218.053 294.217 217.294 292.715C217.082 292.388 216.773 292.135 216.411 291.992C216.048 291.849 215.65 291.823 215.272 291.916C214.894 292.01 214.554 292.219 214.3 292.515C214.046 292.811 213.891 293.179 213.856 293.567C213.342 295.516 212.555 297.383 211.518 299.111C210.735 300.534 209.719 301.817 208.513 302.905C207.104 304.16 205.85 305.166 204.781 306.003L199.144 311.423L204.177 328.675Z" fill="#FFBE9D"/>
</svg>
