<svg width="300" height="300" viewBox="0 0 300 300" fill="none" xmlns="http://www.w3.org/2000/svg">
<g clip-path="url(#clip0)">
<rect width="300" height="300" fill="white"/>
<rect x="200" width="100" height="100" fill="#F6F6F6"/>
<path d="M100 50C100 22.3858 122.386 0 150 0H200V100H150C122.386 100 100 77.6142 100 50V50Z" fill="#F6F6F6"/>
<path d="M100 100H150C177.614 100 200 122.386 200 150V150C200 177.614 177.614 200 150 200H100V100Z" fill="#F6F6F6"/>
<rect y="100" width="100" height="100" fill="#F6F6F6"/>
<path d="M100 250C100 222.386 122.386 200 150 200H200V300H150C122.386 300 100 277.614 100 250V250Z" fill="#F6F6F6"/>
<rect x="200" y="200" width="100" height="100" fill="#F6F6F6"/>
<path d="M142.996 72.2324H174.1V84H128.348V12.9062H142.996V72.2324Z" fill="#133C55"/>
<path d="M256.924 84H242.275V12.9062H256.924V84Z" fill="#133C55"/>
<path d="M71.1211 154.947H42.9961V184H28.3477V112.906H74.6367V124.771H42.9961V143.131H71.1211V154.947Z" fill="#133C55"/>
<path d="M169.121 153.189H140.996V172.232H174.004V184H126.348V112.906H173.906V124.771H140.996V141.715H169.121V153.189Z" fill="#133C55"/>
<path d="M156.924 284H142.275V212.906H156.924V284Z" fill="#133C55"/>
<path d="M278.863 224.771H257.086V284H242.438V224.771H220.953V212.906H278.863V224.771Z" fill="#133C55"/>
<path d="M-207 50C-207 22.3858 -184.614 0 -157 0H50C77.6142 0 100 22.3858 100 50V50C100 77.6142 77.6142 100 50 100H-157C-184.614 100 -207 77.6142 -207 50V50Z" fill="#84D2F6"/>
</g>
<defs>
<clipPath id="clip0">
<rect width="300" height="300" fill="white"/>
</clipPath>
</defs>
</svg>
